<?xml version="1.0" encoding="UTF-8" standalone="no"?>
<!-- Generator: Adobe Illustrator 16.0.0, SVG Export Plug-In . SVG Version: 6.00 Build 0)  -->

<svg
   xmlns:dc="http://purl.org/dc/elements/1.1/"
   xmlns:cc="http://creativecommons.org/ns#"
   xmlns:rdf="http://www.w3.org/1999/02/22-rdf-syntax-ns#"
   xmlns:svg="http://www.w3.org/2000/svg"
   xmlns="http://www.w3.org/2000/svg"
   xmlns:sodipodi="http://sodipodi.sourceforge.net/DTD/sodipodi-0.dtd"
   xmlns:inkscape="http://www.inkscape.org/namespaces/inkscape"
   version="1.1"
   id="Ebene_1"
   x="0px"
   y="0px"
   width="761.29004"
   height="141.731"
   viewBox="0 0 761.29001 141.731"
   enable-background="new 0 0 1190.55 841.89"
   xml:space="preserve"
   inkscape:version="0.48.3.1 r9886"
   sodipodi:docname="paymill-RGB.svg"><metadata
   id="metadata29"><rdf:RDF><cc:Work
       rdf:about=""><dc:format>image/svg+xml</dc:format><dc:type
         rdf:resource="http://purl.org/dc/dcmitype/StillImage" /></cc:Work></rdf:RDF></metadata><defs
   id="defs27" /><sodipodi:namedview
   pagecolor="#ffffff"
   bordercolor="#666666"
   borderopacity="1"
   objecttolerance="10"
   gridtolerance="10"
   guidetolerance="10"
   inkscape:pageopacity="0"
   inkscape:pageshadow="2"
   inkscape:window-width="1920"
   inkscape:window-height="1026"
   id="namedview25"
   showgrid="false"
   fit-margin-top="0"
   fit-margin-left="0"
   fit-margin-right="0"
   fit-margin-bottom="0"
   inkscape:zoom="0.27466296"
   inkscape:cx="584.53125"
   inkscape:cy="-259.32819"
   inkscape:window-x="0"
   inkscape:window-y="35"
   inkscape:window-maximized="1"
   inkscape:current-layer="Ebene_1" />
<g
   id="g3"
   transform="translate(-214.63001,-329.356)">
	<path
   d="m 422.729,414.055 h -11.728 v 42.659 H 391.795 V 343.528 h 33.141 c 23.793,0 41.809,11.216 41.809,34.329 -10e-4,23.623 -16.656,36.198 -44.016,36.198 z m 0.678,-55.403 h -12.406 v 40.279 h 11.896 c 17.166,0 24.474,-6.969 24.474,-20.564 -10e-4,-12.237 -6.801,-19.715 -23.964,-19.715 z"
   id="path5"
   inkscape:connector-curvature="0"
   style="fill:#f05000" />
	<path
   d="m 481.226,456.714 h -19.201 l 43.168,-113.186 h 18.52 l 44.021,113.186 h -20.905 l -8.837,-24.303 h -47.925 l -8.841,24.303 z m 39.257,-72.228 c -3.398,-9.52 -6.454,-19.543 -6.454,-19.543 h -0.343 c 0,0 -2.889,10.197 -6.457,19.543 0,0 -11.556,32.289 -11.726,32.289 h 36.708 l -11.728,-32.289 z"
   id="path7"
   inkscape:connector-curvature="0"
   style="fill:#f05000" />
	<path
   d="m 604.466,413.887 v 42.827 h -19.204 v -42.827 l -37.728,-70.359 h 21.412 l 26.682,52.514 h 0.173 l 26.68,-52.514 h 18.694 l -36.709,70.359 z"
   id="path9"
   inkscape:connector-curvature="0"
   style="fill:#f05000" />
	<path
   d="m 697.312,456.913 -22.944,-65.601 c -2.548,-7.644 -5.098,-15.973 -5.098,-15.973 h -0.34 c 0,0 -0.681,8.836 -1.526,16.485 l -7.99,65.088 H 641.908 L 657.375,343.727 H 675.9 l 25.148,73.08 c 3.23,9.003 6.291,20.052 6.291,20.052 h 0.34 c 0,0 3.227,-11.049 6.458,-20.052 l 25.493,-73.08 h 18.523 l 15.467,113.185 h -19.547 l -8.326,-65.429 c -1.021,-7.815 -1.87,-16.144 -1.87,-16.144 h -0.339 c 0,0 -2.381,8.329 -4.931,15.973 l -22.602,65.601 h -18.693 z"
   id="path11"
   inkscape:connector-curvature="0"
   style="fill:#f05000" />
	<path
   d="M 791.164,456.913 V 343.729 h 19.203 v 113.185 h -19.203 z"
   id="path13"
   inkscape:connector-curvature="0"
   style="fill:#f05000" />
	<path
   d="M 831.029,456.913 V 343.729 h 19.201 v 97.55 h 43.168 v 15.635 h -62.369 z"
   id="path15"
   inkscape:connector-curvature="0"
   style="fill:#f05000" />
	<path
   d="M 913.551,456.913 V 343.729 h 19.205 v 97.55 h 43.164 v 15.635 h -62.369 z"
   id="path17"
   inkscape:connector-curvature="0"
   style="fill:#f05000" />
	<g
   id="g19">
		<path
   d="m 295.228,369.218 c 0,-2.446 -1.985,-4.428 -4.431,-4.428 l -22.575,-0.003 c -3.276,0 -6.238,1.735 -7.665,4.43 l -45.55,95.665 c -0.241,0.543 -0.377,1.145 -0.377,1.775 0,2.445 1.983,4.426 4.429,4.426 l 22.574,0.004 c 3.878,0 7.112,-3.314 8.377,-5.969 1.265,-2.655 44.848,-94.126 44.848,-94.126 h -0.006 c 0.238,-0.546 0.376,-1.142 0.376,-1.774 z"
   id="path21"
   inkscape:connector-curvature="0"
   style="fill:#f05000" />
		<path
   d="m 349.275,382.505 c 0,-0.621 -0.126,-1.212 -0.358,-1.746 v -0.005 l -21.04,-45.428 -0.012,-0.01 c -1.473,-3.313 -4.488,-5.96 -8.365,-5.96 l -22.576,0.002 c -2.446,0 -4.428,1.982 -4.428,4.427 0,0.633 0.137,1.233 0.378,1.777 l -0.005,0.004 21.227,44.809 c 0,0 0.545,1.37 0.545,2.131 0,0.762 -0.212,1.468 -0.548,2.092 l 0.003,0.037 -21.222,44.814 c -0.241,0.547 -0.378,1.143 -0.378,1.777 0,2.445 1.981,4.426 4.428,4.426 l 22.576,0.004 c 3.877,0 6.726,-2.646 8.365,-5.963 l 0.012,-0.01 21.04,-45.427 v -0.005 c 0.232,-0.534 0.358,-1.125 0.358,-1.746 z"
   id="path23"
   inkscape:connector-curvature="0"
   style="fill:#f05000" />
	</g>
</g>
</svg>